<?xml version="1.0" encoding="UTF-8" standalone="no"?>
<svg
   xmlns:dc="http://purl.org/dc/elements/1.1/"
   xmlns:cc="http://creativecommons.org/ns#"
   xmlns:rdf="http://www.w3.org/1999/02/22-rdf-syntax-ns#"
   xmlns:svg="http://www.w3.org/2000/svg"
   xmlns="http://www.w3.org/2000/svg"
   xmlns:sodipodi="http://sodipodi.sourceforge.net/DTD/sodipodi-0.dtd"
   xmlns:inkscape="http://www.inkscape.org/namespaces/inkscape"
   sodipodi:docname="h1.svg"
   inkscape:version="1.0 (4035a4fb49, 2020-05-01)"
   id="svg446"
   version="1.1"
   viewBox="0 0 6.0854341 6.2472595"
   height="6.2472596mm"
   width="6.085434mm">
  <defs
     id="defs440" />
  <sodipodi:namedview
     inkscape:window-maximized="1"
     inkscape:window-y="-8"
     inkscape:window-x="-8"
     inkscape:window-height="705"
     inkscape:window-width="1366"
     showgrid="false"
     inkscape:document-rotation="0"
     inkscape:current-layer="layer1"
     inkscape:document-units="mm"
     inkscape:cy="37.209236"
     inkscape:cx="75.49941"
     inkscape:zoom="2.8"
     inkscape:pageshadow="2"
     inkscape:pageopacity="0.0"
     borderopacity="1.0"
     bordercolor="#666666"
     pagecolor="#ffffff"
     id="base" />
  <metadata
     id="metadata443">
    <rdf:RDF>
      <cc:Work
         rdf:about="">
        <dc:format>image/svg+xml</dc:format>
        <dc:type
           rdf:resource="http://purl.org/dc/dcmitype/StillImage" />
        <dc:title></dc:title>
      </cc:Work>
    </rdf:RDF>
  </metadata>
  <g
     transform="translate(-136.33237,-225.76917)"
     id="layer1"
     inkscape:groupmode="layer"
     inkscape:label="Layer 1">
    <g
       style="stroke-width:25.20369319;stroke-miterlimit:4;stroke-dasharray:none"
       inkscape:export-ydpi="96"
       inkscape:export-xdpi="96"
       transform="matrix(0.00706697,-0.00268248,0.00312612,0.00645455,158.16347,220.4928)"
       id="g2659">
      <path
         style="fill:none;stroke:#000b00;stroke-width:25.20369319;stroke-linecap:butt;stroke-linejoin:round;stroke-miterlimit:4;stroke-dasharray:none;stroke-opacity:1"
         d="m -3192.0211,275.85234 143.3582,-95.13777 c 35.4441,-126.533484 92.9761,-250.326795 171.3784,-373.38315 119.2699,-20.14115 235.2563,-30.11165 374.6864,-9.77444 54.2983,21.29256 105.3788,47.41197 149.8745,83.40847 46.296,29.925385 83.7964,61.609903 105.5638,96.441016 -9.0484,23.37738964 -25.6774,38.007875 -66.4661,24.7618775 -34.1073,-10.9237965 -63.1655,-30.2629085 -89.9247,-53.4335295 -41.2698,8.843818 -82.5396,-7.187684 -123.8094,-32.581426 -36.149,18.372682 -76.3803,23.137553 -119.8997,16.942329 -46.0519,-6.665768 -69.2193,17.181199 -93.8345,39.097717 33.6472,40.542555 64.9216,86.358026 119.8997,79.498691 56.5129,-33.561804 116.1438,-58.5491433 182.456,-65.162879 66.8178,19.7334008 152.2259,28.026671 158.9973,84.711724 -17.6284,34.78924 -73.1394,23.578233 -123.8094,18.245587 -72.9087,17.130853 -120.209,39.383403 -156.3909,63.859623 -19.8543,35.4813 -50.5601,62.5226 -92.5312,80.80192 -43.5534,44.19921 -91.991,83.51431 -155.0876,108.17035 -21.7169,8.45179 -51.6968,16.1524 -100.3508,22.15536 l -207.9813,104.93139"
         id="path964"
         inkscape:connector-curvature="0"
         sodipodi:nodetypes="cccccccccccccccccccc" />
      <path
         style="fill:none;stroke:#000b00;stroke-width:25.20369319;stroke-linecap:round;stroke-linejoin:miter;stroke-miterlimit:4;stroke-dasharray:none;stroke-opacity:1"
         d="m -2527.36,-83.846612 c 19.7452,-25.739338 33.2506,-51.478668 39.0977,-77.218008"
         id="path966"
         inkscape:connector-curvature="0"
         sodipodi:nodetypes="cc" />
      <path
         style="fill:none;stroke:#000b00;stroke-width:25.20369319;stroke-linecap:round;stroke-linejoin:miter;stroke-miterlimit:4;stroke-dasharray:none;stroke-opacity:1"
         d="m -2403.8704,-50.944486 c 16.4476,-19.219974 27.6974,-38.439943 32.568,-57.659914"
         id="path966-0"
         inkscape:connector-curvature="0"
         sodipodi:nodetypes="cc" />
      <path
         style="fill:none;stroke:#000b00;stroke-width:25.20369319;stroke-linecap:round;stroke-linejoin:miter;stroke-miterlimit:4;stroke-dasharray:none;stroke-opacity:1"
         d="m -2641.861,-66.282241 c -23.5623,-17.356646 -41.8608,-36.317059 -53.6988,-57.245839"
         id="path966-9"
         inkscape:connector-curvature="0"
         sodipodi:nodetypes="cc" />
      <path
         style="fill:none;stroke:#000b00;stroke-width:25.20369319;stroke-linecap:butt;stroke-linejoin:miter;stroke-miterlimit:4;stroke-dasharray:none;stroke-opacity:1"
         d="m -2527.36,-83.846612 c 2.3817,31.229582 0.8542,62.459163 -12.6401,93.6887452"
         id="path989"
         inkscape:connector-curvature="0"
         sodipodi:nodetypes="cc" />
      <path
         style="fill:none;stroke:#000b00;stroke-width:25.20369319;stroke-linecap:butt;stroke-linejoin:miter;stroke-miterlimit:4;stroke-dasharray:none;stroke-opacity:1"
         d="m -2629.8504,-64.802751 c -5.2481,9.676192 -4.9386,19.352383 -4.147,29.028575 -45.5214,2.330101 -62.9837,21.495635 -78.331,41.9301607"
         id="path991"
         inkscape:connector-curvature="0"
         sodipodi:nodetypes="ccc" />
      <path
         style="fill:none;stroke:#000b00;stroke-width:25.20369319;stroke-linecap:round;stroke-linejoin:miter;stroke-miterlimit:4;stroke-dasharray:none;stroke-opacity:1"
         d="m -2633.9974,-35.774176 c 22.294,8.282386 45.3608,15.173808 61.7433,34.097039"
         id="path993"
         inkscape:connector-curvature="0"
         sodipodi:nodetypes="cc" />
      <path
         style="fill:none;stroke:#000b00;stroke-width:25.20369319;stroke-linecap:round;stroke-linejoin:miter;stroke-miterlimit:4;stroke-dasharray:none;stroke-opacity:1"
         d="m -2480.9798,111.12993 c -5.8741,-28.669317 -6.7652,-55.004432 -1.5403,-78.474679"
         id="path966-9-4"
         inkscape:connector-curvature="0"
         sodipodi:nodetypes="cc" />
      <path
         style="fill:none;stroke:#000b00;stroke-width:25.20369319;stroke-linecap:round;stroke-linejoin:miter;stroke-miterlimit:4;stroke-dasharray:none;stroke-opacity:1"
         d="m -2454.9973,102.27497 c 7.6125,-24.103796 8.7674,-46.245104 1.9962,-65.977773"
         id="path966-9-4-2"
         inkscape:connector-curvature="0"
         sodipodi:nodetypes="cc" />
      <path
         style="fill:none;stroke:#000b00;stroke-width:25.20369319;stroke-linecap:round;stroke-linejoin:miter;stroke-miterlimit:4;stroke-dasharray:none;stroke-opacity:1"
         d="m -2468.2021,106.54846 c -6.5884,-15.442272 -5.3072,-42.985647 0.5531,-55.627524"
         id="path966-9-4-6"
         inkscape:connector-curvature="0"
         sodipodi:nodetypes="cc" />
      <path
         style="fill:none;stroke:#000b00;stroke-width:25.20369319;stroke-linecap:butt;stroke-linejoin:miter;stroke-miterlimit:4;stroke-dasharray:none;stroke-opacity:1"
         d="m -2291.1447,44.524188 c -23.0242,-2.319036 -46.0484,-2.448564 -69.0726,1.303262 -14.8781,15.774806 -19.4265,31.033124 -16.9424,45.939816"
         id="path1055"
         inkscape:connector-curvature="0"
         sodipodi:nodetypes="ccc" />
      <path
         style="fill:none;stroke:#000b00;stroke-width:25.20369319;stroke-linecap:butt;stroke-linejoin:round;stroke-miterlimit:4;stroke-dasharray:none;stroke-opacity:1"
         d="m -2249.3688,-17.919299 c -16.7813,-11.863283 -31.4439,-25.845295 -43.3125,-42.621332 0.08,-4.49016 2.3011,-7.144301 6.6812,-7.948295"
         id="path1057"
         inkscape:connector-curvature="0"
         sodipodi:nodetypes="ccc" />
    </g>
    <path
       id="path499"
       d="m 136.46787,230.83584 c 1.14307,1.04509 1.14307,1.04509 1.14307,1.04509"
       style="fill:none;stroke:#000000;stroke-width:0.18520833;stroke-linecap:round;stroke-linejoin:miter;stroke-miterlimit:4;stroke-dasharray:none;stroke-opacity:1" />
    <path
       id="path1324"
       d="m 137.56174,231.53731 c -0.0208,-0.0204 -0.2082,-0.19226 -0.41652,-0.38182 l -0.37874,-0.34466 0.32627,-0.45602 0.32628,-0.45602 -0.0424,-0.3633 c -0.0797,-0.68287 -0.0704,-1.42995 0.0267,-2.15017 l 0.0395,-0.29355 0.21956,-0.12199 c 0.68597,-0.38119 1.88257,-0.83518 2.26091,-0.85779 0.0999,-0.006 0.11438,0.0236 0.11323,0.23134 -7.9e-4,0.1483 -0.009,0.16836 -0.0796,0.20171 -0.0433,0.0204 -0.12577,0.0792 -0.18327,0.13077 -0.12456,0.11165 -0.36689,0.22698 -0.60684,0.28876 -0.15823,0.0409 -0.18544,0.0386 -0.29808,-0.0239 -0.1166,-0.0647 -0.22844,-0.0661 -0.19883,-0.003 0.007,0.0158 0.0587,0.0524 0.11403,0.0814 l 0.10066,0.0528 -0.0928,0.0773 c -0.051,0.0426 -0.1293,0.13444 -0.17385,0.20423 -0.21578,0.33793 -0.19141,0.42303 0.16817,0.58711 0.45796,0.20897 0.72184,0.24702 1.01106,0.14578 0.13882,-0.0487 0.16838,-0.0712 0.30811,-0.23593 0.12724,-0.15 0.47176,-0.47753 0.53225,-0.50601 0.009,-0.004 0.0533,0.0823 0.0991,0.19208 l 0.0833,0.19954 -0.069,0.0507 c -0.038,0.0279 -0.14824,0.14638 -0.24504,0.26329 -0.14022,0.16933 -0.18072,0.24021 -0.19912,0.34854 -0.0282,0.16618 -0.0955,0.29838 -0.242,0.47577 -0.0614,0.0743 -0.17118,0.25501 -0.24403,0.4016 -0.14628,0.29433 -0.44235,0.68425 -0.64561,0.85023 -0.0722,0.059 -0.22857,0.16082 -0.34752,0.22635 -0.20355,0.11215 -0.24527,0.15042 -0.70872,0.6501 -0.27084,0.29203 -0.49849,0.54005 -0.50588,0.55117 -0.007,0.0111 -0.0304,0.004 -0.0512,-0.0169 z"
       style="fill:#ffffff;stroke-width:0.18520833;stroke-linecap:round;stroke-miterlimit:4;stroke-dasharray:none" />
    <path
       id="path1326"
       d="m 140.56659,226.53608 c -0.0863,0.0109 -0.2151,0.0148 -0.28625,0.009 l -0.12935,-0.0113 -0.001,-0.19769 c -5.3e-4,-0.10873 2.2e-4,-0.20289 0.002,-0.20925 0.005,-0.0236 0.4554,0.011 0.65652,0.0504 0.2064,0.0405 0.20804,0.0415 0.20415,0.12532 -0.004,0.0775 -0.0158,0.0899 -0.1464,0.14933 -0.0783,0.0357 -0.21308,0.0738 -0.29937,0.0846 z"
       style="fill:#ffffff;stroke-width:0.18520833;stroke-linecap:round;stroke-miterlimit:4;stroke-dasharray:none" />
    <path
       id="path1328"
       d="m 141.66736,226.50002 c -0.10824,-5.2e-4 -0.27535,-0.0178 -0.37135,-0.0382 l -0.17454,-0.0372 0.008,-0.0901 0.008,-0.0901 0.16708,0.0312 c 0.23321,0.0436 0.64165,0.18526 0.59716,0.20718 -0.0203,0.01 -0.1254,0.0177 -0.23364,0.0172 z"
       style="fill:#ffffff;stroke-width:0.18520833;stroke-linecap:round;stroke-miterlimit:4;stroke-dasharray:none" />
    <path
       id="path1330"
       d="m 140.9355,227.47309 c -0.0319,-0.1022 -0.0374,-0.10697 -0.0811,-0.0707 -0.0412,0.0342 -0.0517,0.0286 -0.0863,-0.0456 l -0.0394,-0.0845 0.12932,-0.0603 c 0.0745,-0.0348 0.25203,-0.0774 0.41887,-0.10064 l 0.28953,-0.0403 -0.0148,0.101 c -0.0145,0.0995 -0.0178,0.10238 -0.2195,0.19646 l -0.20474,0.0955 -0.0736,-0.10137 c -0.0515,-0.0709 -0.0884,-0.0976 -0.12307,-0.0888 -0.0449,0.0115 -0.042,0.0246 0.0325,0.14319 0.0681,0.10842 0.0756,0.13358 0.0443,0.14818 -0.0299,0.0139 -0.0448,-0.005 -0.072,-0.092 z"
       style="fill:#ffffff;stroke-width:0.18520833;stroke-linecap:round;stroke-miterlimit:4;stroke-dasharray:none" />
    <path
       transform="scale(0.26458333)"
       id="path1332"
       d=""
       style="fill:#ffffff;stroke-width:3.8179;stroke-linecap:round;stroke-miterlimit:4;stroke-dasharray:none" />
  </g>
</svg>
