<?xml version="1.0" encoding="UTF-8" standalone="no"?>
<svg
   xmlns:dc="http://purl.org/dc/elements/1.1/"
   xmlns:cc="http://creativecommons.org/ns#"
   xmlns:rdf="http://www.w3.org/1999/02/22-rdf-syntax-ns#"
   xmlns:svg="http://www.w3.org/2000/svg"
   xmlns="http://www.w3.org/2000/svg"
   xmlns:sodipodi="http://sodipodi.sourceforge.net/DTD/sodipodi-0.dtd"
   xmlns:inkscape="http://www.inkscape.org/namespaces/inkscape"
   width="48.418751mm"
   height="25.143808mm"
   viewBox="0 0 48.418752 25.143809"
   version="1.1"
   id="svg432"
   inkscape:version="1.0 (4035a4fb49, 2020-05-01)"
   sodipodi:docname="p1.svg">
  <defs
     id="defs426" />
  <sodipodi:namedview
     id="base"
     pagecolor="#ffffff"
     bordercolor="#666666"
     borderopacity="1.0"
     inkscape:pageopacity="0.0"
     inkscape:pageshadow="2"
     inkscape:zoom="0.24748737"
     inkscape:cx="194.22056"
     inkscape:cy="165.83422"
     inkscape:document-units="mm"
     inkscape:current-layer="layer1"
     inkscape:document-rotation="0"
     showgrid="false"
     inkscape:window-width="1366"
     inkscape:window-height="705"
     inkscape:window-x="-8"
     inkscape:window-y="-8"
     inkscape:window-maximized="1" />
  <metadata
     id="metadata429">
    <rdf:RDF>
      <cc:Work
         rdf:about="">
        <dc:format>image/svg+xml</dc:format>
        <dc:type
           rdf:resource="http://purl.org/dc/dcmitype/StillImage" />
        <dc:title />
      </cc:Work>
    </rdf:RDF>
  </metadata>
  <g
     inkscape:label="Layer 1"
     inkscape:groupmode="layer"
     id="layer1"
     transform="translate(55.247248,-61.830758)">
    <path
       sodipodi:nodetypes="cc"
       inkscape:export-ydpi="96"
       inkscape:export-xdpi="96"
       inkscape:connector-curvature="0"
       style="fill:none;stroke:#000000;stroke-width:0.293314px;stroke-linecap:round;stroke-linejoin:miter;stroke-miterlimit:4;stroke-dasharray:none;stroke-opacity:1"
       d="M -7.4284894,86.827909 C -2.1405772,83.440335 -44.640425,74.841932 -54.666813,61.977415"
       id="path1307" />
    <path
       sodipodi:nodetypes="cc"
       inkscape:export-ydpi="96"
       inkscape:export-xdpi="96"
       inkscape:connector-curvature="0"
       style="fill:none;stroke:#000000;stroke-width:0.293314px;stroke-linecap:round;stroke-linejoin:miter;stroke-miterlimit:4;stroke-dasharray:none;stroke-opacity:1"
       d="M -7.9820665,86.687447 C -5.2348343,83.460988 -47.123255,74.548615 -55.100591,62.229416"
       id="path1309" />
    <path
       style="fill:none;stroke:#000000;stroke-width:0.0195176;stroke-linecap:butt;stroke-linejoin:miter;stroke-miterlimit:4;stroke-dasharray:none;stroke-opacity:1"
       d="m -7.9820665,86.687447 0.5535771,0.140462 v 0"
       id="path470" />
    <path
       style="fill:none;stroke:#000000;stroke-width:0.292764;stroke-linecap:round;stroke-linejoin:miter;stroke-miterlimit:4;stroke-dasharray:none;stroke-opacity:1"
       d="m -54.666813,61.977415 c -0.433778,0.252001 -0.433778,0.252001 -0.433778,0.252001"
       id="path472" />
    <path
       style="fill:#ffffff;stroke-width:0.0278823;stroke-miterlimit:4;stroke-dasharray:none"
       d="m -7.6825634,86.484578 c 0.1402238,-0.864108 -1.3720921,-1.82653 -5.4715466,-3.482036 -1.550456,-0.626131 -3.288883,-1.277125 -8.004234,-2.99738 -8.917068,-3.253126 -13.333397,-4.985544 -17.594561,-6.901915 -8.025813,-3.609449 -13.289318,-7.064957 -15.692468,-10.302156 -0.481704,-0.648886 -0.513944,-0.871179 -0.04368,-0.301136 0.536188,0.649947 2.140997,2.192545 2.974309,2.859006 4.655298,3.72319 11.95424,7.382463 23.458738,11.760867 1.014361,0.386048 4.075929,1.526389 6.803482,2.534092 7.687232,2.840066 9.52488,3.567813 11.5656823,4.580252 1.5282042,0.75814 2.5451249,1.541463 2.5451249,1.960483 0,0.120134 -0.3928083,0.536705 -0.5060897,0.536705 -0.043635,0 -0.058121,-0.102836 -0.034761,-0.246782 z"
       id="path1297" />
  </g>
</svg>
